{"title":"Get Hard 2015 CAMRip XviD MP3 Idiocracy","uid":11789652,"size":770066934,"categoryP":"video","categoryS":"movies","magnet":"?xt=urn:btih:472df2217f8912442b7702aa236fbc879d404671&amp;dn=Get+Hard+2015+CAMRip+XviD+MP3+Idiocracy&amp;tr=udp%3A%2F%2Ftracker.openbittorrent.com%3A80&amp;tr=udp%3A%2F%2Fopen.demonii.com%3A1337&amp;tr=udp%3A%2F%2Ftracker.coppersurfer.tk%3A6969&amp;tr=udp%3A%2F%2Fexodus.desync.com%3A6969","seeders":7,"leechers":1,"uploader":"Satafakap","files":2,"time":1427847312,"description":"Synopsis / Plot\n\nWhen millionaire James King is nailed for fraud and bound for San Quentin, he turns to Darnell Lewis to prep him to go behind bars.\n\nDirector: Etan Cohen\nWriters: Jay Martel (screenplay), Ian Roberts (screenplay)\nStars: Will Ferrell, Kevin Hart, Alison Brie  \n &lt;a href=&quot;\nhttp://www.imdb.com/title/tt2561572/&quot; rel=&quot;nofollow&quot; target=&quot;_NEW&quot;&gt;\nhttp://www.imdb.com/title/tt2561572/&lt;/a&gt;\n\nGeneral\n\nComplete name         : Get.Hard.2015.CAMRip.XviD.MP3-Idiocracy.avi\nFormat                : AVI\nFormat/Info           : Audio Video Interleave\nFile size             : 729 MiB\nDuration              : 1h 36mn\nOverall bit rate      : 1 060 Kbps\nWriting application   : VirtualDubMod 1.5.10.3 | www.virtualdub-fr.org\nWriting library       : VirtualDubMod build 2550/release\nSource                : Get.Hard.2015.CAM.XviD.MP3-2LOW - Thanks!\nSample                : Yes\n\nVideo\n\nID                                       : 0\nFormat                                   : MPEG-4 Visual\nFormat profile                           : Advanced Simple@L5\nFormat settings, BVOP                    : 2\nFormat settings, QPel                    : No\nFormat settings, GMC                     : No warppoints\nFormat settings, Matrix                  : Default (H.263)\nMuxing mode                              : Packed bitstream\nCodec ID                                 : XVID\nCodec ID/Hint                            : XviD\nDuration                                 : 1h 36mn\nBit rate                                 : 922 Kbps\nWidth                                    : 640 pixels\nHeight                                   : 304 pixels\nDisplay aspect ratio                     : 2.105\nFrame rate                               : 25.000 fps\nColor space                              : YUV\nChroma subsampling                       : 4:2:0\nBit depth                                : 8 bits\nScan type                                : Progressive\nCompression mode                         : Lossy\nBits/(Pixel*Frame)                       : 0.190\nStream size                              : 634 MiB (87%)\nWriting library                          : XviD 64\n\nAudio\n\nID                                       : 1\nFormat                                   : MPEG Audio\nFormat version                           : Version 1\nFormat profile                           : Layer 3\nMode                                     : Joint stereo\nMode extension                           : MS Stereo\nCodec ID                                 : 55\nCodec ID/Hint                            : MP3\nDuration                                 : 1h 36mn\nBit rate mode                            : Constant\nBit rate                                 : 128 Kbps\nChannel(s)                               : 2 channels\nSampling rate                            : 48.0 KHz\nCompression mode                         : Lossy\nStream size                              : 88.0 MiB (12%)\nAlignment                                : Split accross interleaves\nInterleave, duration                     : 40 ms (1.00 video frame)\nInterleave, preload duration             : 500 ms\n\nScreenshots:\n &lt;a href=&quot;\nhttp://i.imgur.com/qK1Caur.jpg&quot; rel=&quot;nofollow&quot; target=&quot;_NEW&quot;&gt;\nhttp://i.imgur.com/qK1Caur.jpg&lt;/a&gt;\n &lt;a href=&quot;\nhttp://i.imgur.com/0Ek1hxT.jpg&quot; rel=&quot;nofollow&quot; target=&quot;_NEW&quot;&gt;\nhttp://i.imgur.com/0Ek1hxT.jpg&lt;/a&gt;\n &lt;a href=&quot;\nhttp://i.imgur.com/SDjk2mC.jpg&quot; rel=&quot;nofollow&quot; target=&quot;_NEW&quot;&gt;\nhttp://i.imgur.com/SDjk2mC.jpg&lt;/a&gt;\n &lt;a href=&quot;\nhttp://i.imgur.com/cQl1oDq.jpg&quot; rel=&quot;nofollow&quot; target=&quot;_NEW&quot;&gt;\nhttp://i.imgur.com/cQl1oDq.jpg&lt;/a&gt;\n &lt;a href=&quot;\nhttp://i.imgur.com/PyfCHsW.jpg&quot; rel=&quot;nofollow&quot; target=&quot;_NEW&quot;&gt;\nhttp://i.imgur.com/PyfCHsW.jpg&lt;/a&gt;","torrent":{"xt":"urn:btih:472df2217f8912442b7702aa236fbc879d404671","amp;dn":"Get+Hard+2015+CAMRip+XviD+MP3+Idiocracy","amp;tr":["udp%3A%2F%2Ftracker.openbittorrent.com%3A80","udp%3A%2F%2Fopen.demonii.com%3A1337","udp%3A%2F%2Ftracker.coppersurfer.tk%3A6969","udp%3A%2F%2Fexodus.desync.com%3A6969"],"infoHash":"472df2217f8912442b7702aa236fbc879d404671","infoHashBuffer":{"type":"Buffer","data":[71,45,242,33,127,137,18,68,43,119,2,170,35,111,188,135,157,64,70,113]},"announce":[],"urlList":[]}}